{"title":"Akcent feat Ruxandra Bar - Feelings On Fire (Official Video) - H","uid":6953057,"size":79308990,"categoryP":"video","categoryS":"music_videos","magnet":"?xt=urn:btih:a889debcc1192a689029c313de734dbbfddd1875&amp;dn=Akcent+feat+Ruxandra+Bar+-+Feelings+On+Fire+%28Official+Video%29+-+H&amp;tr=udp%3A%2F%2Ftracker.openbittorrent.com%3A80&amp;tr=udp%3A%2F%2Fopen.demonii.com%3A1337&amp;tr=udp%3A%2F%2Ftracker.coppersurfer.tk%3A6969&amp;tr=udp%3A%2F%2Fexodus.desync.com%3A6969","seeders":1,"leechers":0,"uploader":"AbhiHKRG","files":6,"time":1326473969,"description":"Cover :: &lt;a href=&quot;\nhttp://i.minus.com/ib0iAoEUDMK7Px.png&quot; rel=&quot;nofollow&quot; target=&quot;_NEW&quot;&gt;\nhttp://i.minus.com/ib0iAoEUDMK7Px.png&lt;/a&gt;\n\nScreen ::\n &lt;a href=&quot;\nhttp://i.minus.com/iLVrLwGfmWnsM.png&quot; rel=&quot;nofollow&quot; target=&quot;_NEW&quot;&gt;\nhttp://i.minus.com/iLVrLwGfmWnsM.png&lt;/a&gt;\n &lt;a href=&quot;\nhttp://i.minus.com/i0Fe9JHMTQmb5.png&quot; rel=&quot;nofollow&quot; target=&quot;_NEW&quot;&gt;\nhttp://i.minus.com/i0Fe9JHMTQmb5.png&lt;/a&gt;\n &lt;a href=&quot;\nhttp://i.minus.com/ibciXJPXhoh0bm.png&quot; rel=&quot;nofollow&quot; target=&quot;_NEW&quot;&gt;\nhttp://i.minus.com/ibciXJPXhoh0bm.png&lt;/a&gt;\n &lt;a href=&quot;\nhttp://i.minus.com/ixw0knCljsfIM.png&quot; rel=&quot;nofollow&quot; target=&quot;_NEW&quot;&gt;\nhttp://i.minus.com/ixw0knCljsfIM.png&lt;/a&gt;\n &lt;a href=&quot;\nhttp://i.minus.com/ibzStqCiisIZdG.png&quot; rel=&quot;nofollow&quot; target=&quot;_NEW&quot;&gt;\nhttp://i.minus.com/ibzStqCiisIZdG.png&lt;/a&gt;\n &lt;a href=&quot;\nhttp://i.minus.com/iTyCeSpRUldOV.png&quot; rel=&quot;nofollow&quot; target=&quot;_NEW&quot;&gt;\nhttp://i.minus.com/iTyCeSpRUldOV.png&lt;/a&gt;\n &lt;a href=&quot;\nhttp://i.minus.com/inazwY3aETHNC.png&quot; rel=&quot;nofollow&quot; target=&quot;_NEW&quot;&gt;\nhttp://i.minus.com/inazwY3aETHNC.png&lt;/a&gt;\n &lt;a href=&quot;\nhttp://i.minus.com/i1By14TqsGCxf.png&quot; rel=&quot;nofollow&quot; target=&quot;_NEW&quot;&gt;\nhttp://i.minus.com/i1By14TqsGCxf.png&lt;/a&gt;\n\n\nGeneral ::\nFormat                           : AVI\nFormat/Info                      : Audio Video Interleave\nFile size                        : 75.6 MiB\nDuration                         : 3mn 19s\nOverall bit rate                 : 3 179 Kbps\n\n\nVideo Info ::\nID                               : 0\nFormat                           : AVC\nFormat/Info                      : Advanced Video Codec\nFormat profile                   : &lt;a class=&quot;__cf_email__&quot; href=&quot;/cdn-cgi/l/email-protection&quot; data-cfemail=&quot;551d3c323d1519607b64&quot;&gt;[email&amp;#160;protected]&lt;/a&gt;&lt;script cf-hash='f9e31' type=&quot;text/javascript&quot;&gt;\n/* &lt;![CDATA[ */!function(){try{var t=&quot;currentScript&quot;in document?document.currentScript:function(){for(var t=document.getElementsByTagName(&quot;script&quot;),e=t.length;e--;)if(t[e].getAttribute(&quot;cf-hash&quot;))return t[e]}();if(t&amp;&amp;t.previousSibling){var e,r,n,i,c=t.previousSibling,a=c.getAttribute(&quot;data-cfemail&quot;);if(a){for(e=&quot;&quot;,r=parseInt(a.substr(0,2),16),n=2;a.length-n;n+=2)i=parseInt(a.substr(n,2),16)^r,e+=String.fromCharCode(i);e=document.createTextNode(e),c.parentNode.replaceChild(e,c)}}}catch(u){}}();/* ]]&gt; */&lt;/script&gt;\nFormat settings, CABAC           : Yes\nFormat settings, ReFrames        : 2 frames\nCodec ID                         : H264\nDuration                         : 10s 0ms\nBit rate                         : 2 846 Kbps\nWidth                            : 1 280 pixels\nHeight                           : 544 pixels\nDisplay aspect ratio             : 2.35:1\nFrame rate                       : 30.000 fps\nColor space                      : YUV\nChroma subsampling               : 4:2:0\nBit depth                        : 8 bits\nScan type                        : Progressive\nBits/(Pixel*Frame)               : 0.136\nStream size                      : 67.7 MiB (90%)\n\n\nAudio Info ::\nID                               : 1\nFormat                           : MPEG Audio\nFormat version                   : Version 1\nFormat profile                   : Layer 3\nCodec ID                         : 55\nCodec ID/Hint                    : MP3\nDuration                         : 3mn 19s\nBit rate mode                    : Constant\nBit rate                         : 320 Kbps\nChannel(s)                       : 2 channels\nSampling rate                    : 44.1 KHz\nCompression mode                 : Lossy\nStream size                      : 7.61 MiB (10%)","torrent":{"xt":"urn:btih:a889debcc1192a689029c313de734dbbfddd1875","amp;dn":"Akcent+feat+Ruxandra+Bar+-+Feelings+On+Fire+%28Official+Video%29+-+H","amp;tr":["udp%3A%2F%2Ftracker.openbittorrent.com%3A80","udp%3A%2F%2Fopen.demonii.com%3A1337","udp%3A%2F%2Ftracker.coppersurfer.tk%3A6969","udp%3A%2F%2Fexodus.desync.com%3A6969"],"infoHash":"a889debcc1192a689029c313de734dbbfddd1875","infoHashBuffer":{"type":"Buffer","data":[168,137,222,188,193,25,42,104,144,41,195,19,222,115,77,187,253,221,24,117]},"announce":[],"urlList":[]}}